<svg width="154" height="154" viewBox="0 0 154 154" fill="none" xmlns="http://www.w3.org/2000/svg">
<path d="M0 0H154V154H0V0Z" fill="url(#paint0_linear_4_5)"/>
<path d="M77.2188 121H32.2188V109.75H43.4688V45.0625H32.2188V33.8125H77.2188C82.2578 33.8125 87.0156 34.375 91.4922 35.5C95.9688 36.6016 99.9297 38.1484 103.375 40.1406C106.844 42.1094 109.949 44.4531 112.691 47.1719C115.457 49.8906 117.73 52.8672 119.512 56.1016C121.316 59.3359 122.688 62.7578 123.625 66.3672C124.562 69.9531 125.031 73.6328 125.031 77.4062C125.031 81.1797 124.562 84.8711 123.625 88.4805C122.688 92.0664 121.316 95.4766 119.512 98.7109C117.73 101.945 115.457 104.922 112.691 107.641C109.949 110.359 106.844 112.715 103.375 114.707C99.9297 116.676 95.9688 118.223 91.4922 119.348C87.0156 120.449 82.2578 121 77.2188 121ZM77.2188 109.75C80.875 109.75 84.1445 108.941 87.0273 107.324C89.9102 105.684 92.2656 103.41 94.0938 100.504C95.9453 97.5977 97.3398 94.1992 98.2773 90.3086C99.2383 86.3945 99.7188 82.0938 99.7188 77.4062C99.7188 73.6562 99.4375 70.1641 98.875 66.9297C98.3125 63.6953 97.4336 60.7305 96.2383 58.0352C95.043 55.3164 93.5664 53.0078 91.8086 51.1094C90.0742 49.1875 87.9648 47.6992 85.4805 46.6445C82.9961 45.5898 80.2422 45.0625 77.2188 45.0625H65.9688V109.75H77.2188Z" fill="black"/>
<defs>
<linearGradient id="paint0_linear_4_5" x1="77" y1="0" x2="77" y2="154" gradientUnits="userSpaceOnUse">
<stop stop-color="#BF2301"/>
<stop offset="0.489583" stop-color="#ECB204"/>
<stop offset="1" stop-color="#CBE43D"/>
</linearGradient>
</defs>
</svg>
