<svg width="267" height="45" viewBox="0 0 267 45" fill="none" xmlns="http://www.w3.org/2000/svg">
<path d="M22.6094 44H0.109375V38.375H5.73438V6.03125H0.109375V0.40625H22.6094C25.1289 0.40625 27.5078 0.6875 29.7461 1.25C31.9844 1.80078 33.9648 2.57422 35.6875 3.57031C37.4219 4.55469 38.9746 5.72656 40.3457 7.08594C41.7285 8.44531 42.8652 9.93359 43.7559 11.5508C44.6582 13.168 45.3438 14.8789 45.8125 16.6836C46.2812 18.4766 46.5156 20.3164 46.5156 22.2031C46.5156 24.0898 46.2812 25.9355 45.8125 27.7402C45.3438 29.5332 44.6582 31.2383 43.7559 32.8555C42.8652 34.4727 41.7285 35.9609 40.3457 37.3203C38.9746 38.6797 37.4219 39.8574 35.6875 40.8535C33.9648 41.8379 31.9844 42.6113 29.7461 43.1738C27.5078 43.7246 25.1289 44 22.6094 44ZM22.6094 38.375C24.4375 38.375 26.0723 37.9707 27.5137 37.1621C28.9551 36.3418 30.1328 35.2051 31.0469 33.752C31.9727 32.2988 32.6699 30.5996 33.1387 28.6543C33.6191 26.6973 33.8594 24.5469 33.8594 22.2031C33.8594 20.3281 33.7188 18.582 33.4375 16.9648C33.1562 15.3477 32.7168 13.8652 32.1191 12.5176C31.5215 11.1582 30.7832 10.0039 29.9043 9.05469C29.0371 8.09375 27.9824 7.34961 26.7402 6.82227C25.498 6.29492 24.1211 6.03125 22.6094 6.03125H16.9844V38.375H22.6094ZM79.9141 22.8184V38.375H83.4297V44H72.4785L70.9141 40.3438C69.7188 42.0547 68.3301 43.2266 66.748 43.8594C65.1777 44.4922 62.9805 44.8086 60.1562 44.8086C58.6914 44.8086 57.3262 44.5508 56.0605 44.0352C54.8066 43.5312 53.7344 42.8398 52.8438 41.9609C51.9648 41.082 51.2734 40.0273 50.7695 38.7969C50.2773 37.5664 50.0312 36.248 50.0312 34.8418C50.0312 32.416 50.9805 30.4062 52.8789 28.8125C54.7773 27.207 57.2031 26.4043 60.1562 26.4043C62.5352 26.4043 64.5039 26.6328 66.0625 27.0898C67.6211 27.5352 68.957 28.25 70.0703 29.2344V21.7812C70.0703 20.7266 69.9238 19.8477 69.6309 19.1445C69.3496 18.4297 68.9219 17.8848 68.3477 17.5098C67.7734 17.123 67.1289 16.8535 66.4141 16.7012C65.6992 16.5488 64.8438 16.4727 63.8477 16.4727C63.0508 16.4727 62.3301 16.6426 61.6855 16.9824C62.0488 17.7441 62.2305 18.5469 62.2305 19.3906C62.2305 20.9492 61.6797 22.2793 60.5781 23.3809C59.4883 24.4707 58.1641 25.0156 56.6055 25.0156C55.0469 25.0156 53.7168 24.4707 52.6152 23.3809C51.5254 22.2793 50.9805 20.9492 50.9805 19.3906C50.9805 18.5938 51.1328 17.8438 51.4375 17.1406C51.7539 16.4375 52.1875 15.8223 52.7383 15.2949C53.207 14.8027 53.6934 14.3633 54.1973 13.9766C54.7012 13.5781 55.334 13.1855 56.0957 12.7988C56.8691 12.4004 57.707 12.0723 58.6094 11.8145C59.5117 11.5566 60.5898 11.3516 61.8438 11.1992C63.1094 11.0352 64.4922 10.9531 65.9922 10.9531C67.9375 10.9531 69.7656 11.2402 71.4766 11.8145C73.1875 12.3887 74.6641 13.1855 75.9062 14.2051C77.1484 15.2246 78.127 16.4785 78.8418 17.9668C79.5566 19.4551 79.9141 21.0723 79.9141 22.8184ZM70.0703 36.1953V33.7695C69.3438 33.0781 68.5234 32.498 67.6094 32.0293C66.707 31.5488 65.8691 31.3086 65.0957 31.3086C63.4316 31.3086 62.2598 31.5898 61.5801 32.1523C60.9004 32.7031 60.5605 33.5996 60.5605 34.8418C60.5605 36.3301 60.8535 37.4258 61.4395 38.1289C62.0254 38.832 63.1152 39.1836 64.709 39.1836C65.6113 39.1836 66.5488 38.8965 67.5215 38.3223C68.5059 37.7363 69.3555 37.0273 70.0703 36.1953ZM109.797 10.9531C111.438 10.9531 112.873 11.1758 114.104 11.6211C115.334 12.0664 116.342 12.6816 117.127 13.4668C117.912 14.2402 118.545 15.2305 119.025 16.4375C119.518 17.6328 119.857 18.9219 120.045 20.3047C120.244 21.6758 120.344 23.2461 120.344 25.0156V38.375H123.859V44H106.984V38.375H110.5V24.3125C110.5 22.4609 110.33 21.0195 109.99 19.9883C109.662 18.957 109.182 18.248 108.549 17.8613C107.928 17.4746 107.078 17.2812 106 17.2812C105.016 17.2812 104.008 17.6973 102.977 18.5293C101.945 19.3613 100.967 20.5215 100.041 22.0098L99.9531 38.375H103.469V44H86.5938V38.375H90.1094V17.2812H86.5938V11.6562H97.5098L99.9707 16.4199C100.404 15.6348 100.902 14.9316 101.465 14.3105C102.039 13.6777 102.719 13.1035 103.504 12.5879C104.301 12.0605 105.232 11.6562 106.299 11.375C107.365 11.0938 108.531 10.9531 109.797 10.9531ZM138.256 44.8086C135.514 44.8086 133.188 44.1055 131.277 42.6992C129.367 41.293 127.943 39.3301 127.006 36.8105C126.08 34.291 125.617 31.291 125.617 27.8105C125.617 25.2676 125.945 22.9414 126.602 20.832C127.27 18.7227 128.195 16.9473 129.379 15.5059C130.574 14.0527 132.01 12.9336 133.686 12.1484C135.373 11.3516 137.219 10.9531 139.223 10.9531C140.23 10.9531 141.18 11.0469 142.07 11.2344C142.961 11.4102 143.717 11.6328 144.338 11.9023C144.971 12.1719 145.568 12.5059 146.131 12.9043C146.693 13.3027 147.145 13.6777 147.484 14.0293C147.836 14.3809 148.176 14.7734 148.504 15.207V6.03125H144.988V0.40625H158.348V38.375H161.863V44H151.422L149.295 39.9219C148.838 40.5547 148.322 41.1348 147.748 41.6621C145.428 43.7598 142.264 44.8086 138.256 44.8086ZM148.504 21.166C147.168 18.7051 145.352 17.4746 143.055 17.4746C140.734 17.4746 139.006 18.3828 137.869 20.1992C136.744 22.0156 136.182 24.5938 136.182 27.9336C136.182 29.5039 136.363 30.957 136.727 32.293C137.102 33.6172 137.594 34.7188 138.203 35.5977C138.824 36.4766 139.533 37.1621 140.33 37.6543C141.127 38.1348 141.959 38.375 142.826 38.375C143.998 38.375 145.035 38.0527 145.938 37.4082C146.852 36.752 147.707 35.7852 148.504 34.5078V21.166ZM194.594 22.8184V38.375H198.109V44H187.158L185.594 40.3438C184.398 42.0547 183.01 43.2266 181.428 43.8594C179.857 44.4922 177.66 44.8086 174.836 44.8086C173.371 44.8086 172.006 44.5508 170.74 44.0352C169.486 43.5312 168.414 42.8398 167.523 41.9609C166.645 41.082 165.953 40.0273 165.449 38.7969C164.957 37.5664 164.711 36.248 164.711 34.8418C164.711 32.416 165.66 30.4062 167.559 28.8125C169.457 27.207 171.883 26.4043 174.836 26.4043C177.215 26.4043 179.184 26.6328 180.742 27.0898C182.301 27.5352 183.637 28.25 184.75 29.2344V21.7812C184.75 20.7266 184.604 19.8477 184.311 19.1445C184.029 18.4297 183.602 17.8848 183.027 17.5098C182.453 17.123 181.809 16.8535 181.094 16.7012C180.379 16.5488 179.523 16.4727 178.527 16.4727C177.73 16.4727 177.01 16.6426 176.365 16.9824C176.729 17.7441 176.91 18.5469 176.91 19.3906C176.91 20.9492 176.359 22.2793 175.258 23.3809C174.168 24.4707 172.844 25.0156 171.285 25.0156C169.727 25.0156 168.396 24.4707 167.295 23.3809C166.205 22.2793 165.66 20.9492 165.66 19.3906C165.66 18.5938 165.812 17.8438 166.117 17.1406C166.434 16.4375 166.867 15.8223 167.418 15.2949C167.887 14.8027 168.373 14.3633 168.877 13.9766C169.381 13.5781 170.014 13.1855 170.775 12.7988C171.549 12.4004 172.387 12.0723 173.289 11.8145C174.191 11.5566 175.27 11.3516 176.523 11.1992C177.789 11.0352 179.172 10.9531 180.672 10.9531C182.617 10.9531 184.445 11.2402 186.156 11.8145C187.867 12.3887 189.344 13.1855 190.586 14.2051C191.828 15.2246 192.807 16.4785 193.521 17.9668C194.236 19.4551 194.594 21.0723 194.594 22.8184ZM184.75 36.1953V33.7695C184.023 33.0781 183.203 32.498 182.289 32.0293C181.387 31.5488 180.549 31.3086 179.775 31.3086C178.111 31.3086 176.939 31.5898 176.26 32.1523C175.58 32.7031 175.24 33.5996 175.24 34.8418C175.24 36.3301 175.533 37.4258 176.119 38.1289C176.705 38.832 177.795 39.1836 179.389 39.1836C180.291 39.1836 181.229 38.8965 182.201 38.3223C183.186 37.7363 184.035 37.0273 184.75 36.1953ZM201.273 11.6562H212.189L214.404 15.9277C216.479 12.6113 219.414 10.9531 223.211 10.9531C225.754 10.9531 227.77 11.7383 229.258 13.3086C230.758 14.8672 231.508 16.8945 231.508 19.3906C231.508 20.9492 230.957 22.2793 229.855 23.3809C228.766 24.4707 227.441 25.0156 225.883 25.0156C224.324 25.0156 222.994 24.4707 221.893 23.3809C220.803 22.2793 220.258 20.9492 220.258 19.3906C220.258 18.7578 220.357 18.1484 220.557 17.5625C220.24 17.375 219.906 17.2812 219.555 17.2812C218.77 17.2812 217.955 17.7969 217.111 18.8281C216.279 19.8477 215.477 21.377 214.703 23.416L214.633 38.375H222.367V44H201.273V38.375H204.789V17.2812H201.273V11.6562ZM263.148 22.8184V38.375H266.664V44H255.713L254.148 40.3438C252.953 42.0547 251.564 43.2266 249.982 43.8594C248.412 44.4922 246.215 44.8086 243.391 44.8086C241.926 44.8086 240.561 44.5508 239.295 44.0352C238.041 43.5312 236.969 42.8398 236.078 41.9609C235.199 41.082 234.508 40.0273 234.004 38.7969C233.512 37.5664 233.266 36.248 233.266 34.8418C233.266 32.416 234.215 30.4062 236.113 28.8125C238.012 27.207 240.438 26.4043 243.391 26.4043C245.77 26.4043 247.738 26.6328 249.297 27.0898C250.855 27.5352 252.191 28.25 253.305 29.2344V21.7812C253.305 20.7266 253.158 19.8477 252.865 19.1445C252.584 18.4297 252.156 17.8848 251.582 17.5098C251.008 17.123 250.363 16.8535 249.648 16.7012C248.934 16.5488 248.078 16.4727 247.082 16.4727C246.285 16.4727 245.564 16.6426 244.92 16.9824C245.283 17.7441 245.465 18.5469 245.465 19.3906C245.465 20.9492 244.914 22.2793 243.812 23.3809C242.723 24.4707 241.398 25.0156 239.84 25.0156C238.281 25.0156 236.951 24.4707 235.85 23.3809C234.76 22.2793 234.215 20.9492 234.215 19.3906C234.215 18.5938 234.367 17.8438 234.672 17.1406C234.988 16.4375 235.422 15.8223 235.973 15.2949C236.441 14.8027 236.928 14.3633 237.432 13.9766C237.936 13.5781 238.568 13.1855 239.33 12.7988C240.104 12.4004 240.941 12.0723 241.844 11.8145C242.746 11.5566 243.824 11.3516 245.078 11.1992C246.344 11.0352 247.727 10.9531 249.227 10.9531C251.172 10.9531 253 11.2402 254.711 11.8145C256.422 12.3887 257.898 13.1855 259.141 14.2051C260.383 15.2246 261.361 16.4785 262.076 17.9668C262.791 19.4551 263.148 21.0723 263.148 22.8184ZM253.305 36.1953V33.7695C252.578 33.0781 251.758 32.498 250.844 32.0293C249.941 31.5488 249.104 31.3086 248.33 31.3086C246.666 31.3086 245.494 31.5898 244.814 32.1523C244.135 32.7031 243.795 33.5996 243.795 34.8418C243.795 36.3301 244.088 37.4258 244.674 38.1289C245.26 38.832 246.35 39.1836 247.943 39.1836C248.846 39.1836 249.783 38.8965 250.756 38.3223C251.74 37.7363 252.59 37.0273 253.305 36.1953Z" fill="black"/>
<path d="M0.109375 44H-0.890625V45H0.109375V44ZM0.109375 38.375V37.375H-0.890625V38.375H0.109375ZM5.73438 38.375V39.375H6.73438V38.375H5.73438ZM5.73438 6.03125H6.73438V5.03125H5.73438V6.03125ZM0.109375 6.03125H-0.890625V7.03125H0.109375V6.03125ZM0.109375 0.40625V-0.59375H-0.890625V0.40625H0.109375ZM29.7461 1.25L29.5024 2.21985L29.5071 2.22103L29.7461 1.25ZM35.6875 3.57031L35.1869 4.43604L35.1939 4.44L35.6875 3.57031ZM40.3457 7.08594L39.6416 7.79608L39.6447 7.79906L40.3457 7.08594ZM43.7559 11.5508L42.8799 12.0332L42.8826 12.038L43.7559 11.5508ZM45.8125 16.6836L44.8446 16.935L44.845 16.9365L45.8125 16.6836ZM45.8125 27.7402L46.78 27.9932L46.7804 27.9916L45.8125 27.7402ZM43.7559 32.8555L42.8826 32.3682L42.8799 32.3731L43.7559 32.8555ZM40.3457 37.3203L39.6447 36.6072L39.6416 36.6102L40.3457 37.3203ZM35.6875 40.8535L36.1836 41.7218L36.1855 41.7207L35.6875 40.8535ZM29.7461 43.1738L29.985 44.1449L29.9898 44.1437L29.7461 43.1738ZM27.5137 37.1621L28.0029 38.0343L28.0083 38.0312L27.5137 37.1621ZM31.0469 33.752L30.2035 33.2146L30.2004 33.2195L31.0469 33.752ZM33.1387 28.6543L32.1675 28.4159L32.1665 28.42L33.1387 28.6543ZM32.1191 12.5176L31.2037 12.9201L31.205 12.923L32.1191 12.5176ZM29.9043 9.05469L29.1618 9.72471L29.1705 9.73409L29.9043 9.05469ZM16.9844 6.03125V5.03125H15.9844V6.03125H16.9844ZM16.9844 38.375H15.9844V39.375H16.9844V38.375ZM22.6094 43H0.109375V45H22.6094V43ZM1.10938 44V38.375H-0.890625V44H1.10938ZM0.109375 39.375H5.73438V37.375H0.109375V39.375ZM6.73438 38.375V6.03125H4.73438V38.375H6.73438ZM5.73438 5.03125H0.109375V7.03125H5.73438V5.03125ZM1.10938 6.03125V0.40625H-0.890625V6.03125H1.10938ZM0.109375 1.40625H22.6094V-0.59375H0.109375V1.40625ZM22.6094 1.40625C25.0542 1.40625 27.3507 1.67911 29.5024 2.21984L29.9898 0.280157C27.6649 -0.30411 25.2036 -0.59375 22.6094 -0.59375V1.40625ZM29.5071 2.22103C31.6679 2.75272 33.5578 3.494 35.1869 4.43601L36.1881 2.70462C34.3719 1.65444 32.3009 0.848839 29.985 0.278967L29.5071 2.22103ZM35.1939 4.44C36.8539 5.38217 38.3354 6.50098 39.6416 7.79607L41.0498 6.3758C39.6138 4.95215 37.9898 3.7272 36.1811 2.70063L35.1939 4.44ZM39.6447 7.79906C40.9618 9.09385 42.0384 10.5052 42.8799 12.0332L44.6318 11.0684C43.6921 9.36202 42.4952 7.79677 41.0467 6.37281L39.6447 7.79906ZM42.8826 12.038C43.7432 13.5804 44.3971 15.2121 44.8446 16.935L46.7804 16.4322C46.2904 14.5458 45.5732 12.7555 44.6291 11.0635L42.8826 12.038ZM44.845 16.9365C45.2918 18.6454 45.5156 20.4002 45.5156 22.2031H47.5156C47.5156 20.2326 47.2707 18.3077 46.78 16.4307L44.845 16.9365ZM45.5156 22.2031C45.5156 24.006 45.2918 25.7672 44.8446 27.4888L46.7804 27.9916C47.2707 26.1039 47.5156 24.1736 47.5156 22.2031H45.5156ZM44.845 27.4873C44.3976 29.1986 43.7437 30.8249 42.8826 32.3682L44.6291 33.3427C45.5727 31.6517 46.2899 29.8679 46.78 27.9932L44.845 27.4873ZM42.8799 32.3731C42.0384 33.9011 40.9618 35.3124 39.6447 36.6072L41.0467 38.0334C42.4952 36.6095 43.6921 35.0442 44.6318 33.3379L42.8799 32.3731ZM39.6416 36.6102C38.3343 37.9063 36.8514 39.0319 35.1895 39.9864L36.1855 41.7207C37.9924 40.6829 39.6149 39.453 41.0498 38.0304L39.6416 36.6102ZM35.1914 39.9853C33.5595 40.9178 31.6663 41.6602 29.5024 42.204L29.9898 44.1437C32.3024 43.5625 34.3702 42.758 36.1836 41.7218L35.1914 39.9853ZM29.5071 42.2028C27.3539 42.7326 25.0558 43 22.6094 43V45C25.202 45 27.6617 44.7166 29.985 44.1449L29.5071 42.2028ZM22.6094 39.375C24.5902 39.375 26.3967 38.9353 28.0029 38.0343L27.0244 36.29C25.7479 37.0061 24.2848 37.375 22.6094 37.375V39.375ZM28.0083 38.0312C29.5981 37.1265 30.8947 35.8719 31.8933 34.2844L30.2004 33.2195C29.3709 34.5382 28.3121 35.5571 27.0191 36.293L28.0083 38.0312ZM31.8903 34.2893C32.8841 32.7293 33.6203 30.9243 34.1108 28.8886L32.1665 28.42C31.7195 30.2749 31.0612 31.8684 30.2035 33.2146L31.8903 34.2893ZM34.1098 28.8927C34.6123 26.8462 34.8594 24.6145 34.8594 22.2031H32.8594C32.8594 24.4792 32.626 26.5483 32.1675 28.4159L34.1098 28.8927ZM34.8594 22.2031C34.8594 20.2786 34.7151 18.4746 34.4227 16.7935L32.4523 17.1362C32.7224 18.6895 32.8594 20.3776 32.8594 22.2031H34.8594ZM34.4227 16.7935C34.129 15.1047 33.6676 13.5426 33.0333 12.1122L31.205 12.923C31.766 14.1879 32.1835 15.5906 32.4523 17.1362L34.4227 16.7935ZM33.0346 12.1151C32.3987 10.6688 31.6027 9.41714 30.6381 8.37528L29.1705 9.73409C29.9637 10.5907 30.6443 11.6476 31.2037 12.9201L33.0346 12.1151ZM30.6467 8.38472C29.6778 7.31105 28.5014 6.48355 27.131 5.90178L26.3495 7.74275C27.4635 8.21567 28.3965 8.87645 29.1619 9.72465L30.6467 8.38472ZM27.131 5.90178C25.7512 5.316 24.2392 5.03125 22.6094 5.03125V7.03125C24.003 7.03125 25.2449 7.27384 26.3495 7.74275L27.131 5.90178ZM22.6094 5.03125H16.9844V7.03125H22.6094V5.03125ZM15.9844 6.03125V38.375H17.9844V6.03125H15.9844ZM16.9844 39.375H22.6094V37.375H16.9844V39.375ZM79.9141 38.375H78.9141V39.375H79.9141V38.375ZM83.4297 38.375H84.4297V37.375H83.4297V38.375ZM83.4297 44V45H84.4297V44H83.4297ZM72.4785 44L71.5591 44.3934L71.8187 45H72.4785V44ZM70.9141 40.3438L71.8334 39.9504L71.1253 38.2953L70.0943 39.771L70.9141 40.3438ZM66.748 43.8594L66.3767 42.9309L66.3743 42.9319L66.748 43.8594ZM56.0605 44.0352L56.4378 43.1091L56.4334 43.1073L56.0605 44.0352ZM52.8438 41.9609L52.1366 42.6681L52.1413 42.6727L52.8438 41.9609ZM50.7695 38.7969L49.841 39.1683L49.8441 39.1758L50.7695 38.7969ZM52.8789 28.8125L53.5219 29.5784L53.5246 29.5761L52.8789 28.8125ZM66.0625 27.0898L65.7811 28.0495L65.7878 28.0514L66.0625 27.0898ZM70.0703 29.2344L69.4079 29.9835L71.0703 31.4534V29.2344H70.0703ZM69.6309 19.1445L68.7003 19.5107L68.7039 19.5199L68.7078 19.5291L69.6309 19.1445ZM68.3477 17.5098L67.7891 18.3392L67.7949 18.3432L67.8009 18.347L68.3477 17.5098ZM61.6855 16.9824L61.2191 16.0979L60.3694 16.5459L60.7829 17.4129L61.6855 16.9824ZM52.6152 23.3809L51.9043 24.0842L51.9119 24.0917L52.6152 23.3809ZM51.4375 17.1406L50.5255 16.7302L50.5199 16.743L51.4375 17.1406ZM52.7383 15.2949L53.4299 16.0172L53.4465 16.0013L53.4624 15.9846L52.7383 15.2949ZM54.1973 13.9766L54.8061 14.7699L54.8118 14.7655L54.8175 14.761L54.1973 13.9766ZM56.0957 12.7988L56.5484 13.6905L56.5537 13.6878L56.0957 12.7988ZM61.8438 11.1992L61.9644 12.1919L61.9723 12.1909L61.8438 11.1992ZM70.0703 36.1953L70.8288 36.847L71.0703 36.5659V36.1953H70.0703ZM70.0703 33.7695H71.0703V33.3407L70.7597 33.0451L70.0703 33.7695ZM67.6094 32.0293L67.1394 32.912L67.1462 32.9156L67.1531 32.9191L67.6094 32.0293ZM61.5801 32.1523L62.2097 32.9293L62.2176 32.9227L61.5801 32.1523ZM67.5215 38.3223L68.0299 39.1834L68.033 39.1816L67.5215 38.3223ZM78.9141 22.8184V38.375H80.9141V22.8184H78.9141ZM79.9141 39.375H83.4297V37.375H79.9141V39.375ZM82.4297 38.375V44H84.4297V38.375H82.4297ZM83.4297 43H72.4785V45H83.4297V43ZM73.3979 43.6066L71.8334 39.9504L69.9947 40.7371L71.5591 44.3934L73.3979 43.6066ZM70.0943 39.771C68.9853 41.3584 67.7407 42.3853 66.3767 42.9309L67.1194 44.7879C68.9194 44.0679 70.4522 42.751 71.7338 40.9165L70.0943 39.771ZM66.3743 42.9319C64.9762 43.4953 62.9265 43.8086 60.1562 43.8086V45.8086C63.0344 45.8086 65.3793 45.4891 67.1218 44.7869L66.3743 42.9319ZM60.1562 43.8086C58.8114 43.8086 57.5753 43.5725 56.4378 43.1091L55.6833 44.9613C57.0771 45.5291 58.5714 45.8086 60.1562 45.8086V43.8086ZM56.4334 43.1073C55.2927 42.6488 54.335 42.0276 53.5462 41.2492L52.1413 42.6727C53.1337 43.652 54.3206 44.4137 55.6877 44.963L56.4334 43.1073ZM53.5509 41.2538C52.7722 40.4751 52.1521 39.5343 51.6949 38.4179L49.8441 39.1758C50.3948 40.5204 51.1575 41.6889 52.1366 42.668L53.5509 41.2538ZM51.698 38.4255C51.2559 37.3202 51.0312 36.1287 51.0312 34.8418H49.0312C49.0312 36.3674 49.2988 37.8126 49.8411 39.1683L51.698 38.4255ZM51.0312 34.8418C51.0312 32.7189 51.8441 30.9869 53.5219 29.5784L52.2359 28.0466C50.1169 29.8256 49.0312 32.1131 49.0312 34.8418H51.0312ZM53.5246 29.5761C55.21 28.1508 57.393 27.4043 60.1562 27.4043V25.4043C57.0132 25.4043 54.3447 26.2632 52.2332 28.0489L53.5246 29.5761ZM60.1562 27.4043C62.4798 27.4043 64.3456 27.6285 65.7811 28.0494L66.3439 26.1302C64.6622 25.6371 62.5905 25.4043 60.1562 25.4043V27.4043ZM65.7878 28.0514C67.2161 28.4595 68.4163 29.1067 69.4079 29.9835L70.7327 28.4852C69.4978 27.3933 68.0261 26.6108 66.3372 26.1283L65.7878 28.0514ZM71.0703 29.2344V21.7812H69.0703V29.2344H71.0703ZM71.0703 21.7812C71.0703 20.6419 70.9132 19.6221 70.5539 18.7599L68.7078 19.5291C68.9345 20.0732 69.0703 20.8112 69.0703 21.7812H71.0703ZM70.5614 18.7784C70.2137 17.8947 69.6629 17.1744 68.8944 16.6725L67.8009 18.347C68.1808 18.5952 68.4855 18.9647 68.7003 19.5107L70.5614 18.7784ZM68.9063 16.6803C68.2201 16.2182 67.4554 15.9006 66.6225 15.7231L66.2056 17.6792C66.8024 17.8064 67.3268 18.0279 67.7891 18.3392L68.9063 16.6803ZM66.6225 15.7231C65.8195 15.552 64.8904 15.4727 63.8477 15.4727V17.4727C64.7971 17.4727 65.5789 17.5456 66.2056 17.6792L66.6225 15.7231ZM63.8477 15.4727C62.9038 15.4727 62.0206 15.6753 61.2191 16.0979L62.152 17.867C62.6396 17.6099 63.1978 17.4727 63.8477 17.4727V15.4727ZM60.7829 17.4129C61.0821 18.0402 61.2305 18.6959 61.2305 19.3906H63.2305C63.2305 18.3979 63.0155 17.4481 62.5882 16.5519L60.7829 17.4129ZM61.2305 19.3906C61.2305 20.6841 60.7849 21.7598 59.871 22.6738L61.2852 24.088C62.5744 22.7988 63.2305 21.2143 63.2305 19.3906H61.2305ZM59.871 22.6738C58.9711 23.5737 57.9022 24.0156 56.6055 24.0156V26.0156C58.4259 26.0156 60.0055 25.3677 61.2852 24.088L59.871 22.6738ZM56.6055 24.0156C55.3085 24.0156 54.2317 23.5734 53.3186 22.67L51.9119 24.0917C53.2019 25.368 54.7852 26.0156 56.6055 26.0156V24.0156ZM53.3261 22.6775C52.4227 21.7644 51.9805 20.6876 51.9805 19.3906H49.9805C49.9805 21.2109 50.6281 22.7942 51.9044 24.0842L53.3261 22.6775ZM51.9805 19.3906C51.9805 18.725 52.1069 18.1108 52.3551 17.5382L50.5199 16.743C50.1587 17.5767 49.9805 18.4625 49.9805 19.3906H51.9805ZM52.3494 17.551C52.6137 16.9637 52.9729 16.4547 53.4299 16.0172L52.0467 14.5726C51.4021 15.1898 50.8941 15.9113 50.5256 16.7303L52.3494 17.551ZM53.4624 15.9846C53.8979 15.5273 54.346 15.123 54.8061 14.7699L53.5884 13.1833C53.0407 13.6036 52.5161 14.0782 52.0141 14.6053L53.4624 15.9846ZM54.8175 14.761C55.2554 14.4147 55.8278 14.0563 56.5484 13.6905L55.643 11.9072C54.8401 12.3148 54.1469 12.7416 53.577 13.1921L54.8175 14.761ZM56.5537 13.6878C57.2642 13.3218 58.0402 13.0171 58.8841 12.776L58.3347 10.8529C57.3739 11.1274 56.4741 11.479 55.6377 11.9099L56.5537 13.6878ZM58.8841 12.776C59.7221 12.5365 60.746 12.3399 61.9644 12.1919L61.7231 10.2065C60.4337 10.3632 59.3013 10.5767 58.3347 10.8529L58.8841 12.776ZM61.9723 12.1909C63.1887 12.0332 64.5279 11.9531 65.9922 11.9531V9.95312C64.4564 9.95312 63.0301 10.0371 61.7152 10.2075L61.9723 12.1909ZM65.9922 11.9531C67.8378 11.9531 69.5577 12.2253 71.1584 12.7625L71.7947 10.8664C69.9736 10.2552 68.0372 9.95312 65.9922 9.95312V11.9531ZM71.1584 12.7625C72.7682 13.3028 74.1344 14.0445 75.2718 14.9781L76.5407 13.4321C75.1937 12.3266 73.6068 11.4746 71.7947 10.8664L71.1584 12.7625ZM75.2718 14.9781C76.3981 15.9025 77.2869 17.0392 77.9404 18.3998L79.7432 17.5338C78.967 15.9178 77.8987 14.5467 76.5407 13.4321L75.2718 14.9781ZM77.9404 18.3998C78.5866 19.7452 78.9141 21.2133 78.9141 22.8184H80.9141C80.9141 20.9312 80.5267 19.165 79.7432 17.5338L77.9404 18.3998ZM71.0703 36.1953V33.7695H69.0703V36.1953H71.0703ZM70.7597 33.0451C69.9621 32.2861 69.0629 31.6509 68.0657 31.1395L67.1531 32.9191C67.984 33.3452 68.7254 33.8701 69.381 34.4939L70.7597 33.0451ZM68.0794 31.1466C67.0772 30.613 66.0773 30.3086 65.0957 30.3086V32.3086C65.661 32.3086 66.3369 32.4847 67.1394 32.912L68.0794 31.1466ZM65.0957 30.3086C63.3785 30.3086 61.9031 30.5869 60.9425 31.382L62.2176 32.9227C62.6164 32.5927 63.4848 32.3086 65.0957 32.3086V30.3086ZM60.9505 31.3754C59.9501 32.1861 59.5605 33.4304 59.5605 34.8418H61.5605C61.5605 33.7689 61.8507 33.2201 62.2097 32.9293L60.9505 31.3754ZM59.5605 34.8418C59.5605 36.4276 59.8668 37.8037 60.6712 38.7691L62.2077 37.4887C61.8403 37.0478 61.5605 36.2326 61.5605 34.8418H59.5605ZM60.6712 38.7691C61.5497 39.8232 63.0284 40.1836 64.709 40.1836V38.1836C63.2021 38.1836 62.5011 37.8409 62.2077 37.4887L60.6712 38.7691ZM64.709 40.1836C65.83 40.1836 66.9416 39.8259 68.0299 39.1834L67.0131 37.4611C66.1561 37.9671 65.3927 38.1836 64.709 38.1836V40.1836ZM68.033 39.1816C69.1062 38.5427 70.0403 37.7647 70.8288 36.847L69.3118 35.5436C68.6706 36.29 67.9055 36.9299 67.01 37.463L68.033 39.1816ZM117.127 13.4668L116.42 14.1739L116.425 14.1792L117.127 13.4668ZM119.025 16.4375L118.096 16.8074L118.101 16.8182L119.025 16.4375ZM120.045 20.3047L119.054 20.4391L119.055 20.4485L120.045 20.3047ZM120.344 38.375H119.344V39.375H120.344V38.375ZM123.859 38.375H124.859V37.375H123.859V38.375ZM123.859 44V45H124.859V44H123.859ZM106.984 44H105.984V45H106.984V44ZM106.984 38.375V37.375H105.984V38.375H106.984ZM110.5 38.375V39.375H111.5V38.375H110.5ZM109.99 19.9883L109.037 20.2915L109.04 20.3013L109.99 19.9883ZM108.549 17.8613L108.02 18.7103L108.027 18.7146L108.549 17.8613ZM100.041 22.0098L99.1919 21.4816L99.0425 21.7217L99.041 22.0044L100.041 22.0098ZM99.9531 38.375L98.9531 38.3696L98.9477 39.375H99.9531V38.375ZM103.469 38.375H104.469V37.375H103.469V38.375ZM103.469 44V45H104.469V44H103.469ZM86.5938 44H85.5938V45H86.5938V44ZM86.5938 38.375V37.375H85.5938V38.375H86.5938ZM90.1094 38.375V39.375H91.1094V38.375H90.1094ZM90.1094 17.2812H91.1094V16.2812H90.1094V17.2812ZM86.5938 17.2812H85.5938V18.2812H86.5938V17.2812ZM86.5938 11.6562V10.6562H85.5938V11.6562H86.5938ZM97.5098 11.6562L98.3982 11.1973L98.1187 10.6562H97.5098V11.6562ZM99.9707 16.4199L99.0823 16.8789L99.9413 18.5418L100.846 16.9033L99.9707 16.4199ZM101.465 14.3105L100.724 13.6386L100.724 13.6393L101.465 14.3105ZM103.504 12.5879L104.053 13.4238L104.056 13.4218L103.504 12.5879ZM109.797 11.9531C111.35 11.9531 112.666 12.1642 113.763 12.5614L114.444 10.6808C113.081 10.1874 111.525 9.95312 109.797 9.95312V11.9531ZM113.763 12.5614C114.88 12.9656 115.755 13.5093 116.42 14.1739L117.834 12.7597C116.928 11.8539 115.788 11.1672 114.444 10.6808L113.763 12.5614ZM116.425 14.1792C117.096 14.8396 117.658 15.7063 118.096 16.8073L119.954 16.0677C119.432 14.7546 118.729 13.6408 117.829 12.7544L116.425 14.1792ZM118.101 16.8182C118.558 17.9286 118.877 19.1342 119.054 20.4391L121.036 20.1703C120.838 18.7096 120.477 17.337 119.95 16.0568L118.101 16.8182ZM119.055 20.4485C119.246 21.761 119.344 23.2817 119.344 25.0156H121.344C121.344 23.2105 121.242 21.5905 121.035 20.1609L119.055 20.4485ZM119.344 25.0156V38.375H121.344V25.0156H119.344ZM120.344 39.375H123.859V37.375H120.344V39.375ZM122.859 38.375V44H124.859V38.375H122.859ZM123.859 43H106.984V45H123.859V43ZM107.984 44V38.375H105.984V44H107.984ZM106.984 39.375H110.5V37.375H106.984V39.375ZM111.5 38.375V24.3125H109.5V38.375H111.5ZM111.5 24.3125C111.5 22.4184 111.328 20.8542 110.94 19.6753L109.04 20.3013C109.332 21.1849 109.5 22.5035 109.5 24.3125H111.5ZM110.943 19.6851C110.575 18.5276 109.985 17.567 109.07 17.008L108.027 18.7146C108.378 18.9291 108.749 19.3865 109.037 20.2915L110.943 19.6851ZM109.077 17.0124C108.24 16.4907 107.182 16.2812 106 16.2812V18.2812C106.974 18.2812 107.616 18.4585 108.02 18.7102L109.077 17.0124ZM106 16.2812C104.719 16.2812 103.496 16.8251 102.349 17.751L103.604 19.3076C104.519 18.5694 105.312 18.2812 106 18.2812V16.2812ZM102.349 17.751C101.207 18.672 100.159 19.927 99.1919 21.4816L100.89 22.538C101.775 21.116 102.683 20.0506 103.604 19.3076L102.349 17.751ZM99.041 22.0044L98.9531 38.3696L100.953 38.3804L101.041 22.0151L99.041 22.0044ZM99.9531 39.375H103.469V37.375H99.9531V39.375ZM102.469 38.375V44H104.469V38.375H102.469ZM103.469 43H86.5938V45H103.469V43ZM87.5938 44V38.375H85.5938V44H87.5938ZM86.5938 39.375H90.1094V37.375H86.5938V39.375ZM91.1094 38.375V17.2812H89.1094V38.375H91.1094ZM90.1094 16.2812H86.5938V18.2812H90.1094V16.2812ZM87.5938 17.2812V11.6562H85.5938V17.2812H87.5938ZM86.5938 12.6562H97.5098V10.6562H86.5938V12.6562ZM96.6213 12.1152L99.0823 16.8789L100.859 15.9609L98.3982 11.1973L96.6213 12.1152ZM100.846 16.9033C101.245 16.1811 101.699 15.5418 102.206 14.9818L100.724 13.6393C100.106 14.3215 99.5636 15.0885 99.0953 15.9365L100.846 16.9033ZM102.205 14.9825C102.718 14.4181 103.331 13.8976 104.053 13.4238L102.955 11.752C102.106 12.3094 101.361 12.9374 100.724 13.6386L102.205 14.9825ZM104.056 13.4218C104.749 12.9632 105.577 12.5996 106.554 12.3419L106.044 10.4081C104.888 10.7129 103.853 11.1579 102.952 11.754L104.056 13.4218ZM106.554 12.3419C107.526 12.0856 108.605 11.9531 109.797 11.9531V9.95312C108.458 9.95312 107.205 10.1019 106.044 10.4081L106.554 12.3419ZM127.006 36.8105L126.067 37.1554L126.069 37.1593L127.006 36.8105ZM126.602 20.832L125.648 20.5301L125.647 20.535L126.602 20.832ZM129.379 15.5059L128.607 14.8706L128.606 14.8713L129.379 15.5059ZM133.686 12.1484L134.11 13.054L134.113 13.0527L133.686 12.1484ZM142.07 11.2344L141.864 12.213L141.877 12.2154L142.07 11.2344ZM144.338 11.9023L143.94 12.8197L143.946 12.8224L144.338 11.9023ZM147.484 14.0293L146.765 14.7243L146.771 14.7304L146.777 14.7364L147.484 14.0293ZM148.504 15.207L147.706 15.8105L149.504 18.1856V15.207H148.504ZM148.504 6.03125H149.504V5.03125H148.504V6.03125ZM144.988 6.03125H143.988V7.03125H144.988V6.03125ZM144.988 0.40625V-0.59375H143.988V0.40625H144.988ZM158.348 0.40625H159.348V-0.59375H158.348V0.40625ZM158.348 38.375H157.348V39.375H158.348V38.375ZM161.863 38.375H162.863V37.375H161.863V38.375ZM161.863 44V45H162.863V44H161.863ZM151.422 44L150.535 44.4624L150.816 45H151.422V44ZM149.295 39.9219L150.182 39.4594L149.433 38.0233L148.484 39.3364L149.295 39.9219ZM147.748 41.6621L148.419 42.4039L148.424 42.3986L147.748 41.6621ZM148.504 21.166H149.504V20.9121L149.383 20.6889L148.504 21.166ZM137.869 20.1992L137.021 19.6687L137.019 19.6727L137.869 20.1992ZM136.727 32.293L135.762 32.5554L135.764 32.5654L136.727 32.293ZM138.203 35.5977L137.381 36.1675L137.386 36.1748L138.203 35.5977ZM140.33 37.6543L139.805 38.5051L139.814 38.5107L140.33 37.6543ZM145.938 37.4082L146.519 38.2219L146.521 38.2205L145.938 37.4082ZM148.504 34.5078L149.352 35.0371L149.504 34.7942V34.5078H148.504ZM138.256 43.8086C135.692 43.8086 133.583 43.1546 131.87 41.8939L130.684 43.5045C132.792 45.0563 135.335 45.8086 138.256 45.8086V43.8086ZM131.87 41.8939C130.137 40.618 128.822 38.824 127.943 36.4618L126.069 37.1593C127.065 39.8362 128.597 41.9679 130.684 43.5045L131.87 41.8939ZM127.945 36.4657C127.069 34.0839 126.617 31.2065 126.617 27.8105H124.617C124.617 31.3756 125.091 34.4981 126.067 37.1554L127.945 36.4657ZM126.617 27.8105C126.617 25.3534 126.934 23.129 127.556 21.1291L125.647 20.535C124.956 22.7538 124.617 25.1818 124.617 27.8105H126.617ZM127.555 21.1339C128.191 19.1238 129.062 17.467 130.152 16.1405L128.606 14.8713C127.328 16.4276 126.348 18.3215 125.648 20.5301L127.555 21.1339ZM130.151 16.1411C131.254 14.8009 132.571 13.775 134.11 13.054L133.261 11.2429C131.449 12.0922 129.895 13.3046 128.607 14.8706L130.151 16.1411ZM134.113 13.0527C135.657 12.3234 137.355 11.9531 139.223 11.9531V9.95312C137.082 9.95312 135.089 10.3797 133.259 11.2442L134.113 13.0527ZM139.223 11.9531C140.169 11.9531 141.048 12.0411 141.864 12.2129L142.276 10.2558C141.311 10.0526 140.292 9.95312 139.223 9.95312V11.9531ZM141.877 12.2154C142.719 12.3817 143.402 12.5864 143.94 12.8197L144.736 10.985C144.031 10.6792 143.203 10.4386 142.264 10.2533L141.877 12.2154ZM143.946 12.8224C144.513 13.0639 145.048 13.363 145.553 13.7203L146.709 12.0883C146.088 11.6487 145.428 11.2798 144.73 10.9823L143.946 12.8224ZM145.553 13.7203C146.084 14.0962 146.482 14.4314 146.765 14.7243L148.203 13.3343C147.807 12.9241 147.303 12.5093 146.709 12.0883L145.553 13.7203ZM146.777 14.7364C147.094 15.0527 147.404 15.4101 147.706 15.8105L149.301 14.6036C148.948 14.1368 148.578 13.709 148.191 13.3222L146.777 14.7364ZM149.504 15.207V6.03125H147.504V15.207H149.504ZM148.504 5.03125H144.988V7.03125H148.504V5.03125ZM145.988 6.03125V0.40625H143.988V6.03125H145.988ZM144.988 1.40625H158.348V-0.59375H144.988V1.40625ZM157.348 0.40625V38.375H159.348V0.40625H157.348ZM158.348 39.375H161.863V37.375H158.348V39.375ZM160.863 38.375V44H162.863V38.375H160.863ZM161.863 43H151.422V45H161.863V43ZM152.309 43.5376L150.182 39.4594L148.408 40.3843L150.535 44.4624L152.309 43.5376ZM148.484 39.3364C148.067 39.9145 147.596 40.444 147.072 40.9256L148.424 42.3986C149.048 41.8256 149.609 41.1949 150.106 40.5074L148.484 39.3364ZM147.077 40.9203C144.988 42.8091 142.088 43.8086 138.256 43.8086V45.8086C142.44 45.8086 145.867 44.7104 148.419 42.4039L147.077 40.9203ZM149.383 20.6889C147.917 17.9897 145.805 16.4746 143.055 16.4746V18.4746C144.898 18.4746 146.418 19.4205 147.625 21.6431L149.383 20.6889ZM143.055 16.4746C140.424 16.4746 138.358 17.5323 137.021 19.6687L138.717 20.7297C139.653 19.2333 141.045 18.4746 143.055 18.4746V16.4746ZM137.019 19.6727C135.755 21.7127 135.182 24.5037 135.182 27.9336H137.182C137.182 24.6838 137.733 22.3185 138.719 20.7258L137.019 19.6727ZM135.182 27.9336C135.182 29.5809 135.372 31.1233 135.762 32.5554L137.692 32.0306C137.354 30.7907 137.182 29.4269 137.182 27.9336H135.182ZM135.764 32.5654C136.161 33.9669 136.694 35.1761 137.381 36.1674L139.025 35.0279C138.493 34.2614 138.042 33.2674 137.689 32.0205L135.764 32.5654ZM137.386 36.1748C138.074 37.1473 138.877 37.9324 139.805 38.5051L140.856 36.8035C140.189 36.3918 139.575 35.8058 139.02 35.0205L137.386 36.1748ZM139.814 38.5107C140.755 39.078 141.764 39.375 142.826 39.375V37.375C142.154 37.375 141.499 37.1915 140.846 36.7979L139.814 38.5107ZM142.826 39.375C144.194 39.375 145.437 38.9947 146.519 38.2219L145.356 36.5945C144.633 37.1108 143.802 37.375 142.826 37.375V39.375ZM146.521 38.2205C147.57 37.4671 148.508 36.3899 149.352 35.0371L147.655 33.9785C146.906 35.1804 146.133 36.0368 145.354 36.5959L146.521 38.2205ZM149.504 34.5078V21.166H147.504V34.5078H149.504ZM194.594 38.375H193.594V39.375H194.594V38.375ZM198.109 38.375H199.109V37.375H198.109V38.375ZM198.109 44V45H199.109V44H198.109ZM187.158 44L186.239 44.3934L186.498 45H187.158V44ZM185.594 40.3438L186.513 39.9504L185.805 38.2953L184.774 39.771L185.594 40.3438ZM181.428 43.8594L181.056 42.9309L181.054 42.9319L181.428 43.8594ZM170.74 44.0352L171.118 43.1091L171.113 43.1073L170.74 44.0352ZM167.523 41.9609L166.816 42.6681L166.821 42.6727L167.523 41.9609ZM165.449 38.7969L164.521 39.1683L164.524 39.1758L165.449 38.7969ZM167.559 28.8125L168.202 29.5784L168.204 29.5761L167.559 28.8125ZM180.742 27.0898L180.461 28.0495L180.467 28.0514L180.742 27.0898ZM184.75 29.2344L184.088 29.9835L185.75 31.4534V29.2344H184.75ZM184.311 19.1445L183.38 19.5107L183.384 19.5199L183.387 19.5291L184.311 19.1445ZM183.027 17.5098L182.469 18.3392L182.475 18.3432L182.481 18.347L183.027 17.5098ZM176.365 16.9824L175.899 16.0979L175.049 16.5459L175.463 17.4129L176.365 16.9824ZM167.295 23.3809L166.584 24.0842L166.592 24.0917L167.295 23.3809ZM166.117 17.1406L165.205 16.7302L165.2 16.743L166.117 17.1406ZM167.418 15.2949L168.11 16.0172L168.126 16.0013L168.142 15.9846L167.418 15.2949ZM168.877 13.9766L169.486 14.7699L169.492 14.7655L169.497 14.761L168.877 13.9766ZM170.775 12.7988L171.228 13.6905L171.233 13.6878L170.775 12.7988ZM176.523 11.1992L176.644 12.1919L176.652 12.1909L176.523 11.1992ZM184.75 36.1953L185.508 36.847L185.75 36.5659V36.1953H184.75ZM184.75 33.7695H185.75V33.3407L185.439 33.0451L184.75 33.7695ZM182.289 32.0293L181.819 32.912L181.826 32.9156L181.833 32.9191L182.289 32.0293ZM176.26 32.1523L176.889 32.9293L176.897 32.9227L176.26 32.1523ZM182.201 38.3223L182.71 39.1834L182.713 39.1816L182.201 38.3223ZM193.594 22.8184V38.375H195.594V22.8184H193.594ZM194.594 39.375H198.109V37.375H194.594V39.375ZM197.109 38.375V44H199.109V38.375H197.109ZM198.109 43H187.158V45H198.109V43ZM188.078 43.6066L186.513 39.9504L184.674 40.7371L186.239 44.3934L188.078 43.6066ZM184.774 39.771C183.665 41.3584 182.42 42.3853 181.056 42.9309L181.799 44.7879C183.599 44.0679 185.132 42.751 186.414 40.9165L184.774 39.771ZM181.054 42.9319C179.656 43.4953 177.606 43.8086 174.836 43.8086V45.8086C177.714 45.8086 180.059 45.4891 181.802 44.7869L181.054 42.9319ZM174.836 43.8086C173.491 43.8086 172.255 43.5725 171.118 43.1091L170.363 44.9613C171.757 45.5291 173.251 45.8086 174.836 45.8086V43.8086ZM171.113 43.1073C169.972 42.6488 169.015 42.0276 168.226 41.2492L166.821 42.6727C167.813 43.652 169 44.4137 170.367 44.963L171.113 43.1073ZM168.231 41.2538C167.452 40.4751 166.832 39.5343 166.375 38.4179L164.524 39.1758C165.074 40.5204 165.837 41.6889 166.816 42.668L168.231 41.2538ZM166.378 38.4255C165.936 37.3202 165.711 36.1287 165.711 34.8418H163.711C163.711 36.3674 163.978 37.8126 164.521 39.1683L166.378 38.4255ZM165.711 34.8418C165.711 32.7189 166.524 30.9869 168.202 29.5784L166.916 28.0466C164.797 29.8256 163.711 32.1131 163.711 34.8418H165.711ZM168.204 29.5761C169.89 28.1508 172.073 27.4043 174.836 27.4043V25.4043C171.693 25.4043 169.024 26.2632 166.913 28.0489L168.204 29.5761ZM174.836 27.4043C177.159 27.4043 179.025 27.6285 180.461 28.0494L181.024 26.1302C179.342 25.6371 177.27 25.4043 174.836 25.4043V27.4043ZM180.467 28.0514C181.896 28.4595 183.096 29.1067 184.088 29.9835L185.412 28.4852C184.177 27.3933 182.706 26.6108 181.017 26.1283L180.467 28.0514ZM185.75 29.2344V21.7812H183.75V29.2344H185.75ZM185.75 21.7812C185.75 20.6419 185.593 19.6221 185.234 18.7599L183.387 19.5291C183.614 20.0732 183.75 20.8112 183.75 21.7812H185.75ZM185.241 18.7784C184.893 17.8947 184.343 17.1744 183.574 16.6725L182.481 18.347C182.861 18.5952 183.165 18.9647 183.38 19.5107L185.241 18.7784ZM183.586 16.6803C182.9 16.2182 182.135 15.9006 181.302 15.7231L180.885 17.6792C181.482 17.8064 182.007 18.0279 182.469 18.3392L183.586 16.6803ZM181.302 15.7231C180.499 15.552 179.57 15.4727 178.527 15.4727V17.4727C179.477 17.4727 180.259 17.5456 180.885 17.6792L181.302 15.7231ZM178.527 15.4727C177.583 15.4727 176.7 15.6753 175.899 16.0979L176.832 17.867C177.319 17.6099 177.877 17.4727 178.527 17.4727V15.4727ZM175.463 17.4129C175.762 18.0402 175.91 18.6959 175.91 19.3906H177.91C177.91 18.3979 177.695 17.4481 177.268 16.5519L175.463 17.4129ZM175.91 19.3906C175.91 20.6841 175.465 21.7598 174.551 22.6738L175.965 24.088C177.254 22.7988 177.91 21.2143 177.91 19.3906H175.91ZM174.551 22.6738C173.651 23.5737 172.582 24.0156 171.285 24.0156V26.0156C173.106 26.0156 174.685 25.3677 175.965 24.088L174.551 22.6738ZM171.285 24.0156C169.988 24.0156 168.911 23.5734 167.998 22.67L166.592 24.0917C167.882 25.368 169.465 26.0156 171.285 26.0156V24.0156ZM168.006 22.6775C167.102 21.7644 166.66 20.6876 166.66 19.3906H164.66C164.66 21.2109 165.308 22.7942 166.584 24.0842L168.006 22.6775ZM166.66 19.3906C166.66 18.725 166.787 18.1108 167.035 17.5382L165.2 16.743C164.838 17.5767 164.66 18.4625 164.66 19.3906H166.66ZM167.029 17.551C167.293 16.9637 167.653 16.4547 168.11 16.0172L166.726 14.5726C166.082 15.1898 165.574 15.9113 165.205 16.7303L167.029 17.551ZM168.142 15.9846C168.578 15.5273 169.026 15.123 169.486 14.7699L168.268 13.1833C167.72 13.6036 167.196 14.0782 166.694 14.6053L168.142 15.9846ZM169.497 14.761C169.935 14.4147 170.508 14.0563 171.228 13.6905L170.323 11.9072C169.52 12.3148 168.827 12.7416 168.257 13.1921L169.497 14.761ZM171.233 13.6878C171.944 13.3218 172.72 13.0171 173.564 12.776L173.014 10.8529C172.054 11.1274 171.154 11.479 170.317 11.9099L171.233 13.6878ZM173.564 12.776C174.402 12.5365 175.426 12.3399 176.644 12.1919L176.403 10.2065C175.113 10.3632 173.981 10.5767 173.014 10.8529L173.564 12.776ZM176.652 12.1909C177.868 12.0332 179.208 11.9531 180.672 11.9531V9.95312C179.136 9.95312 177.71 10.0371 176.395 10.2075L176.652 12.1909ZM180.672 11.9531C182.517 11.9531 184.237 12.2253 185.838 12.7625L186.474 10.8664C184.653 10.2552 182.717 9.95312 180.672 9.95312V11.9531ZM185.838 12.7625C187.448 13.3028 188.814 14.0445 189.952 14.9781L191.22 13.4321C189.873 12.3266 188.286 11.4746 186.474 10.8664L185.838 12.7625ZM189.952 14.9781C191.078 15.9025 191.967 17.0392 192.62 18.3998L194.423 17.5338C193.647 15.9178 192.578 14.5467 191.22 13.4321L189.952 14.9781ZM192.62 18.3998C193.266 19.7452 193.594 21.2133 193.594 22.8184H195.594C195.594 20.9312 195.206 19.165 194.423 17.5338L192.62 18.3998ZM185.75 36.1953V33.7695H183.75V36.1953H185.75ZM185.439 33.0451C184.642 32.2861 183.743 31.6509 182.745 31.1395L181.833 32.9191C182.664 33.3452 183.405 33.8701 184.061 34.4939L185.439 33.0451ZM182.759 31.1466C181.757 30.613 180.757 30.3086 179.775 30.3086V32.3086C180.341 32.3086 181.017 32.4847 181.819 32.912L182.759 31.1466ZM179.775 30.3086C178.058 30.3086 176.583 30.5869 175.622 31.382L176.897 32.9227C177.296 32.5927 178.165 32.3086 179.775 32.3086V30.3086ZM175.63 31.3754C174.63 32.1861 174.24 33.4304 174.24 34.8418H176.24C176.24 33.7689 176.53 33.2201 176.889 32.9293L175.63 31.3754ZM174.24 34.8418C174.24 36.4276 174.546 37.8037 175.351 38.7691L176.887 37.4887C176.52 37.0478 176.24 36.2326 176.24 34.8418H174.24ZM175.351 38.7691C176.229 39.8232 177.708 40.1836 179.389 40.1836V38.1836C177.882 38.1836 177.181 37.8409 176.887 37.4887L175.351 38.7691ZM179.389 40.1836C180.51 40.1836 181.621 39.8259 182.71 39.1834L181.693 37.4611C180.836 37.9671 180.072 38.1836 179.389 38.1836V40.1836ZM182.713 39.1816C183.786 38.5427 184.72 37.7647 185.508 36.847L183.992 35.5436C183.35 36.29 182.585 36.9299 181.69 37.463L182.713 39.1816ZM201.273 11.6562V10.6562H200.273V11.6562H201.273ZM212.189 11.6562L213.077 11.1959L212.797 10.6562H212.189V11.6562ZM214.404 15.9277L213.517 16.3881L214.323 17.9435L215.252 16.458L214.404 15.9277ZM229.258 13.3086L228.532 13.9965L228.537 14.002L229.258 13.3086ZM221.893 23.3809L221.182 24.0842L221.189 24.0917L221.893 23.3809ZM220.557 17.5625L221.503 17.8844L221.765 17.116L221.066 16.7022L220.557 17.5625ZM217.111 18.8281L216.337 18.1949L216.337 18.1959L217.111 18.8281ZM214.703 23.416L213.768 23.0614L213.704 23.2305L213.703 23.4113L214.703 23.416ZM214.633 38.375L213.633 38.3703L213.628 39.375H214.633V38.375ZM222.367 38.375H223.367V37.375H222.367V38.375ZM222.367 44V45H223.367V44H222.367ZM201.273 44H200.273V45H201.273V44ZM201.273 38.375V37.375H200.273V38.375H201.273ZM204.789 38.375V39.375H205.789V38.375H204.789ZM204.789 17.2812H205.789V16.2812H204.789V17.2812ZM201.273 17.2812H200.273V18.2812H201.273V17.2812ZM201.273 12.6562H212.189V10.6562H201.273V12.6562ZM211.302 12.1166L213.517 16.3881L215.292 15.4674L213.077 11.1959L211.302 12.1166ZM215.252 16.458C217.15 13.4231 219.771 11.9531 223.211 11.9531V9.95312C219.057 9.95312 215.807 11.7996 213.556 15.3975L215.252 16.458ZM223.211 11.9531C225.532 11.9531 227.266 12.6605 228.532 13.9965L229.984 12.6207C228.273 10.8161 225.976 9.95312 223.211 9.95312V11.9531ZM228.537 14.002C229.83 15.3456 230.508 17.1103 230.508 19.3906H232.508C232.508 16.6788 231.685 14.3888 229.978 12.6152L228.537 14.002ZM230.508 19.3906C230.508 20.6841 230.062 21.7598 229.148 22.6738L230.563 24.088C231.852 22.7988 232.508 21.2143 232.508 19.3906H230.508ZM229.148 22.6738C228.248 23.5737 227.18 24.0156 225.883 24.0156V26.0156C227.703 26.0156 229.283 25.3677 230.563 24.088L229.148 22.6738ZM225.883 24.0156C224.586 24.0156 223.509 23.5734 222.596 22.67L221.189 24.0917C222.479 25.368 224.063 26.0156 225.883 26.0156V24.0156ZM222.603 22.6775C221.7 21.7644 221.258 20.6876 221.258 19.3906H219.258C219.258 21.2109 219.905 22.7942 221.182 24.0842L222.603 22.6775ZM221.258 19.3906C221.258 18.8648 221.34 18.3643 221.503 17.8844L219.61 17.2406C219.375 17.9325 219.258 18.6508 219.258 19.3906H221.258ZM221.066 16.7022C220.603 16.4277 220.094 16.2812 219.555 16.2812V18.2812C219.718 18.2812 219.877 18.3223 220.047 18.4228L221.066 16.7022ZM219.555 16.2812C218.313 16.2812 217.243 17.0882 216.337 18.1949L217.885 19.4614C218.667 18.5056 219.226 18.2812 219.555 18.2812V16.2812ZM216.337 18.1959C215.407 19.3355 214.558 20.9787 213.768 23.0614L215.638 23.7707C216.395 21.7752 217.152 20.3598 217.886 19.4604L216.337 18.1959ZM213.703 23.4113L213.633 38.3703L215.633 38.3797L215.703 23.4207L213.703 23.4113ZM214.633 39.375H222.367V37.375H214.633V39.375ZM221.367 38.375V44H223.367V38.375H221.367ZM222.367 43H201.273V45H222.367V43ZM202.273 44V38.375H200.273V44H202.273ZM201.273 39.375H204.789V37.375H201.273V39.375ZM205.789 38.375V17.2812H203.789V38.375H205.789ZM204.789 16.2812H201.273V18.2812H204.789V16.2812ZM202.273 17.2812V11.6562H200.273V17.2812H202.273ZM263.148 38.375H262.148V39.375H263.148V38.375ZM266.664 38.375H267.664V37.375H266.664V38.375ZM266.664 44V45H267.664V44H266.664ZM255.713 44L254.794 44.3934L255.053 45H255.713V44ZM254.148 40.3438L255.068 39.9504L254.36 38.2953L253.329 39.771L254.148 40.3438ZM249.982 43.8594L249.611 42.9309L249.609 42.9319L249.982 43.8594ZM239.295 44.0352L239.672 43.1091L239.668 43.1073L239.295 44.0352ZM236.078 41.9609L235.371 42.6681L235.376 42.6727L236.078 41.9609ZM234.004 38.7969L233.075 39.1683L233.079 39.1758L234.004 38.7969ZM236.113 28.8125L236.756 29.5784L236.759 29.5761L236.113 28.8125ZM249.297 27.0898L249.015 28.0495L249.022 28.0514L249.297 27.0898ZM253.305 29.2344L252.642 29.9835L254.305 31.4534V29.2344H253.305ZM252.865 19.1445L251.935 19.5107L251.938 19.5199L251.942 19.5291L252.865 19.1445ZM251.582 17.5098L251.023 18.3392L251.029 18.3432L251.035 18.347L251.582 17.5098ZM244.92 16.9824L244.454 16.0979L243.604 16.5459L244.017 17.4129L244.92 16.9824ZM235.85 23.3809L235.139 24.0842L235.146 24.0917L235.85 23.3809ZM234.672 17.1406L233.76 16.7302L233.754 16.743L234.672 17.1406ZM235.973 15.2949L236.664 16.0172L236.681 16.0013L236.697 15.9846L235.973 15.2949ZM237.432 13.9766L238.04 14.7699L238.046 14.7655L238.052 14.761L237.432 13.9766ZM239.33 12.7988L239.783 13.6905L239.788 13.6878L239.33 12.7988ZM245.078 11.1992L245.199 12.1919L245.207 12.1909L245.078 11.1992ZM253.305 36.1953L254.063 36.847L254.305 36.5659V36.1953H253.305ZM253.305 33.7695H254.305V33.3407L253.994 33.0451L253.305 33.7695ZM250.844 32.0293L250.374 32.912L250.381 32.9156L250.387 32.9191L250.844 32.0293ZM244.814 32.1523L245.444 32.9293L245.452 32.9227L244.814 32.1523ZM250.756 38.3223L251.264 39.1834L251.267 39.1816L250.756 38.3223ZM262.148 22.8184V38.375H264.148V22.8184H262.148ZM263.148 39.375H266.664V37.375H263.148V39.375ZM265.664 38.375V44H267.664V38.375H265.664ZM266.664 43H255.713V45H266.664V43ZM256.632 43.6066L255.068 39.9504L253.229 40.7371L254.794 44.3934L256.632 43.6066ZM253.329 39.771C252.22 41.3584 250.975 42.3853 249.611 42.9309L250.354 44.7879C252.154 44.0679 253.687 42.751 254.968 40.9165L253.329 39.771ZM249.609 42.9319C248.211 43.4953 246.161 43.8086 243.391 43.8086V45.8086C246.269 45.8086 248.614 45.4891 250.356 44.7869L249.609 42.9319ZM243.391 43.8086C242.046 43.8086 240.81 43.5725 239.672 43.1091L238.918 44.9613C240.311 45.5291 241.806 45.8086 243.391 45.8086V43.8086ZM239.668 43.1073C238.527 42.6488 237.569 42.0276 236.781 41.2492L235.376 42.6727C236.368 43.652 237.555 44.4137 238.922 44.963L239.668 43.1073ZM236.785 41.2538C236.007 40.4751 235.386 39.5343 234.929 38.4179L233.079 39.1758C233.629 40.5204 234.392 41.6889 235.371 42.668L236.785 41.2538ZM234.932 38.4255C234.49 37.3202 234.266 36.1287 234.266 34.8418H232.266C232.266 36.3674 232.533 37.8126 233.075 39.1683L234.932 38.4255ZM234.266 34.8418C234.266 32.7189 235.078 30.9869 236.756 29.5784L235.47 28.0466C233.351 29.8256 232.266 32.1131 232.266 34.8418H234.266ZM236.759 29.5761C238.444 28.1508 240.627 27.4043 243.391 27.4043V25.4043C240.248 25.4043 237.579 26.2632 235.468 28.0489L236.759 29.5761ZM243.391 27.4043C245.714 27.4043 247.58 27.6285 249.015 28.0494L249.578 26.1302C247.897 25.6371 245.825 25.4043 243.391 25.4043V27.4043ZM249.022 28.0514C250.451 28.4595 251.651 29.1067 252.642 29.9835L253.967 28.4852C252.732 27.3933 251.26 26.6108 249.572 26.1283L249.022 28.0514ZM254.305 29.2344V21.7812H252.305V29.2344H254.305ZM254.305 21.7812C254.305 20.6419 254.148 19.6221 253.788 18.7599L251.942 19.5291C252.169 20.0732 252.305 20.8112 252.305 21.7812H254.305ZM253.796 18.7784C253.448 17.8947 252.897 17.1744 252.129 16.6725L251.035 18.347C251.415 18.5952 251.72 18.9647 251.935 19.5107L253.796 18.7784ZM252.141 16.6803C251.454 16.2182 250.69 15.9006 249.857 15.7231L249.44 17.6792C250.037 17.8064 250.561 18.0279 251.023 18.3392L252.141 16.6803ZM249.857 15.7231C249.054 15.552 248.125 15.4727 247.082 15.4727V17.4727C248.031 17.4727 248.813 17.5456 249.44 17.6792L249.857 15.7231ZM247.082 15.4727C246.138 15.4727 245.255 15.6753 244.454 16.0979L245.386 17.867C245.874 17.6099 246.432 17.4727 247.082 17.4727V15.4727ZM244.017 17.4129C244.316 18.0402 244.465 18.6959 244.465 19.3906H246.465C246.465 18.3979 246.25 17.4481 245.823 16.5519L244.017 17.4129ZM244.465 19.3906C244.465 20.6841 244.019 21.7598 243.105 22.6738L244.52 24.088C245.809 22.7988 246.465 21.2143 246.465 19.3906H244.465ZM243.105 22.6738C242.205 23.5737 241.137 24.0156 239.84 24.0156V26.0156C241.66 26.0156 243.24 25.3677 244.52 24.088L243.105 22.6738ZM239.84 24.0156C238.543 24.0156 237.466 23.5734 236.553 22.67L235.146 24.0917C236.436 25.368 238.02 26.0156 239.84 26.0156V24.0156ZM236.56 22.6775C235.657 21.7644 235.215 20.6876 235.215 19.3906H233.215C233.215 21.2109 233.862 22.7942 235.139 24.0842L236.56 22.6775ZM235.215 19.3906C235.215 18.725 235.341 18.1108 235.589 17.5382L233.754 16.743C233.393 17.5767 233.215 18.4625 233.215 19.3906H235.215ZM235.584 17.551C235.848 16.9637 236.207 16.4547 236.664 16.0172L235.281 14.5726C234.636 15.1898 234.128 15.9113 233.76 16.7303L235.584 17.551ZM236.697 15.9846C237.132 15.5273 237.58 15.123 238.04 14.7699L236.823 13.1833C236.275 13.6036 235.751 14.0782 235.249 14.6053L236.697 15.9846ZM238.052 14.761C238.49 14.4147 239.062 14.0563 239.783 13.6905L238.877 11.9072C238.074 12.3148 237.381 12.7416 236.811 13.1921L238.052 14.761ZM239.788 13.6878C240.499 13.3218 241.275 13.0171 242.118 12.776L241.569 10.8529C240.608 11.1274 239.708 11.479 238.872 11.9099L239.788 13.6878ZM242.118 12.776C242.956 12.5365 243.98 12.3399 245.199 12.1919L244.958 10.2065C243.668 10.3632 242.536 10.5767 241.569 10.8529L242.118 12.776ZM245.207 12.1909C246.423 12.0332 247.762 11.9531 249.227 11.9531V9.95312C247.691 9.95312 246.264 10.0371 244.95 10.2075L245.207 12.1909ZM249.227 11.9531C251.072 11.9531 252.792 12.2253 254.393 12.7625L255.029 10.8664C253.208 10.2552 251.272 9.95312 249.227 9.95312V11.9531ZM254.393 12.7625C256.003 13.3028 257.369 14.0445 258.506 14.9781L259.775 13.4321C258.428 12.3266 256.841 11.4746 255.029 10.8664L254.393 12.7625ZM258.506 14.9781C259.633 15.9025 260.521 17.0392 261.175 18.3998L262.978 17.5338C262.201 15.9178 261.133 14.5467 259.775 13.4321L258.506 14.9781ZM261.175 18.3998C261.821 19.7452 262.148 21.2133 262.148 22.8184H264.148C264.148 20.9312 263.761 19.165 262.978 17.5338L261.175 18.3998ZM254.305 36.1953V33.7695H252.305V36.1953H254.305ZM253.994 33.0451C253.196 32.2861 252.297 31.6509 251.3 31.1395L250.387 32.9191C251.218 33.3452 251.96 33.8701 252.615 34.4939L253.994 33.0451ZM251.314 31.1466C250.312 30.613 249.312 30.3086 248.33 30.3086V32.3086C248.895 32.3086 249.571 32.4847 250.374 32.912L251.314 31.1466ZM248.33 30.3086C246.613 30.3086 245.138 30.5869 244.177 31.382L245.452 32.9227C245.851 32.5927 246.719 32.3086 248.33 32.3086V30.3086ZM244.185 31.3754C243.184 32.1861 242.795 33.4304 242.795 34.8418H244.795C244.795 33.7689 245.085 33.2201 245.444 32.9293L244.185 31.3754ZM242.795 34.8418C242.795 36.4276 243.101 37.8037 243.906 38.7691L245.442 37.4887C245.075 37.0478 244.795 36.2326 244.795 34.8418H242.795ZM243.906 38.7691C244.784 39.8232 246.263 40.1836 247.943 40.1836V38.1836C246.436 38.1836 245.736 37.8409 245.442 37.4887L243.906 38.7691ZM247.943 40.1836C249.064 40.1836 250.176 39.8259 251.264 39.1834L250.247 37.4611C249.39 37.9671 248.627 38.1836 247.943 38.1836V40.1836ZM251.267 39.1816C252.341 38.5427 253.275 37.7647 254.063 36.847L252.546 35.5436C251.905 36.29 251.14 36.9299 250.244 37.463L251.267 39.1816Z" fill="black"/>
</svg>
