<svg width="267" height="45" viewBox="0 0 267 45" fill="none" xmlns="http://www.w3.org/2000/svg">
<path d="M22.6094 44H0.109375V38.375H5.73438V6.03125H0.109375V0.40625H22.6094C25.1289 0.40625 27.5078 0.6875 29.7461 1.25C31.9844 1.80078 33.9648 2.57422 35.6875 3.57031C37.4219 4.55469 38.9746 5.72656 40.3457 7.08594C41.7285 8.44531 42.8652 9.93359 43.7559 11.5508C44.6582 13.168 45.3438 14.8789 45.8125 16.6836C46.2812 18.4766 46.5156 20.3164 46.5156 22.2031C46.5156 24.0898 46.2812 25.9355 45.8125 27.7402C45.3438 29.5332 44.6582 31.2383 43.7559 32.8555C42.8652 34.4727 41.7285 35.9609 40.3457 37.3203C38.9746 38.6797 37.4219 39.8574 35.6875 40.8535C33.9648 41.8379 31.9844 42.6113 29.7461 43.1738C27.5078 43.7246 25.1289 44 22.6094 44ZM22.6094 38.375C24.4375 38.375 26.0723 37.9707 27.5137 37.1621C28.9551 36.3418 30.1328 35.2051 31.0469 33.752C31.9727 32.2988 32.6699 30.5996 33.1387 28.6543C33.6191 26.6973 33.8594 24.5469 33.8594 22.2031C33.8594 20.3281 33.7188 18.582 33.4375 16.9648C33.1562 15.3477 32.7168 13.8652 32.1191 12.5176C31.5215 11.1582 30.7832 10.0039 29.9043 9.05469C29.0371 8.09375 27.9824 7.34961 26.7402 6.82227C25.498 6.29492 24.1211 6.03125 22.6094 6.03125H16.9844V38.375H22.6094ZM79.9141 22.8184V38.375H83.4297V44H72.4785L70.9141 40.3438C69.7188 42.0547 68.3301 43.2266 66.748 43.8594C65.1777 44.4922 62.9805 44.8086 60.1562 44.8086C58.6914 44.8086 57.3262 44.5508 56.0605 44.0352C54.8066 43.5312 53.7344 42.8398 52.8438 41.9609C51.9648 41.082 51.2734 40.0273 50.7695 38.7969C50.2773 37.5664 50.0312 36.248 50.0312 34.8418C50.0312 32.416 50.9805 30.4062 52.8789 28.8125C54.7773 27.207 57.2031 26.4043 60.1562 26.4043C62.5352 26.4043 64.5039 26.6328 66.0625 27.0898C67.6211 27.5352 68.957 28.25 70.0703 29.2344V21.7812C70.0703 20.7266 69.9238 19.8477 69.6309 19.1445C69.3496 18.4297 68.9219 17.8848 68.3477 17.5098C67.7734 17.123 67.1289 16.8535 66.4141 16.7012C65.6992 16.5488 64.8438 16.4727 63.8477 16.4727C63.0508 16.4727 62.3301 16.6426 61.6855 16.9824C62.0488 17.7441 62.2305 18.5469 62.2305 19.3906C62.2305 20.9492 61.6797 22.2793 60.5781 23.3809C59.4883 24.4707 58.1641 25.0156 56.6055 25.0156C55.0469 25.0156 53.7168 24.4707 52.6152 23.3809C51.5254 22.2793 50.9805 20.9492 50.9805 19.3906C50.9805 18.5938 51.1328 17.8438 51.4375 17.1406C51.7539 16.4375 52.1875 15.8223 52.7383 15.2949C53.207 14.8027 53.6934 14.3633 54.1973 13.9766C54.7012 13.5781 55.334 13.1855 56.0957 12.7988C56.8691 12.4004 57.707 12.0723 58.6094 11.8145C59.5117 11.5566 60.5898 11.3516 61.8438 11.1992C63.1094 11.0352 64.4922 10.9531 65.9922 10.9531C67.9375 10.9531 69.7656 11.2402 71.4766 11.8145C73.1875 12.3887 74.6641 13.1855 75.9062 14.2051C77.1484 15.2246 78.127 16.4785 78.8418 17.9668C79.5566 19.4551 79.9141 21.0723 79.9141 22.8184ZM70.0703 36.1953V33.7695C69.3438 33.0781 68.5234 32.498 67.6094 32.0293C66.707 31.5488 65.8691 31.3086 65.0957 31.3086C63.4316 31.3086 62.2598 31.5898 61.5801 32.1523C60.9004 32.7031 60.5605 33.5996 60.5605 34.8418C60.5605 36.3301 60.8535 37.4258 61.4395 38.1289C62.0254 38.832 63.1152 39.1836 64.709 39.1836C65.6113 39.1836 66.5488 38.8965 67.5215 38.3223C68.5059 37.7363 69.3555 37.0273 70.0703 36.1953ZM109.797 10.9531C111.438 10.9531 112.873 11.1758 114.104 11.6211C115.334 12.0664 116.342 12.6816 117.127 13.4668C117.912 14.2402 118.545 15.2305 119.025 16.4375C119.518 17.6328 119.857 18.9219 120.045 20.3047C120.244 21.6758 120.344 23.2461 120.344 25.0156V38.375H123.859V44H106.984V38.375H110.5V24.3125C110.5 22.4609 110.33 21.0195 109.99 19.9883C109.662 18.957 109.182 18.248 108.549 17.8613C107.928 17.4746 107.078 17.2812 106 17.2812C105.016 17.2812 104.008 17.6973 102.977 18.5293C101.945 19.3613 100.967 20.5215 100.041 22.0098L99.9531 38.375H103.469V44H86.5938V38.375H90.1094V17.2812H86.5938V11.6562H97.5098L99.9707 16.4199C100.404 15.6348 100.902 14.9316 101.465 14.3105C102.039 13.6777 102.719 13.1035 103.504 12.5879C104.301 12.0605 105.232 11.6562 106.299 11.375C107.365 11.0938 108.531 10.9531 109.797 10.9531ZM138.256 44.8086C135.514 44.8086 133.188 44.1055 131.277 42.6992C129.367 41.293 127.943 39.3301 127.006 36.8105C126.08 34.291 125.617 31.291 125.617 27.8105C125.617 25.2676 125.945 22.9414 126.602 20.832C127.27 18.7227 128.195 16.9473 129.379 15.5059C130.574 14.0527 132.01 12.9336 133.686 12.1484C135.373 11.3516 137.219 10.9531 139.223 10.9531C140.23 10.9531 141.18 11.0469 142.07 11.2344C142.961 11.4102 143.717 11.6328 144.338 11.9023C144.971 12.1719 145.568 12.5059 146.131 12.9043C146.693 13.3027 147.145 13.6777 147.484 14.0293C147.836 14.3809 148.176 14.7734 148.504 15.207V6.03125H144.988V0.40625H158.348V38.375H161.863V44H151.422L149.295 39.9219C148.838 40.5547 148.322 41.1348 147.748 41.6621C145.428 43.7598 142.264 44.8086 138.256 44.8086ZM148.504 21.166C147.168 18.7051 145.352 17.4746 143.055 17.4746C140.734 17.4746 139.006 18.3828 137.869 20.1992C136.744 22.0156 136.182 24.5938 136.182 27.9336C136.182 29.5039 136.363 30.957 136.727 32.293C137.102 33.6172 137.594 34.7188 138.203 35.5977C138.824 36.4766 139.533 37.1621 140.33 37.6543C141.127 38.1348 141.959 38.375 142.826 38.375C143.998 38.375 145.035 38.0527 145.938 37.4082C146.852 36.752 147.707 35.7852 148.504 34.5078V21.166ZM194.594 22.8184V38.375H198.109V44H187.158L185.594 40.3438C184.398 42.0547 183.01 43.2266 181.428 43.8594C179.857 44.4922 177.66 44.8086 174.836 44.8086C173.371 44.8086 172.006 44.5508 170.74 44.0352C169.486 43.5312 168.414 42.8398 167.523 41.9609C166.645 41.082 165.953 40.0273 165.449 38.7969C164.957 37.5664 164.711 36.248 164.711 34.8418C164.711 32.416 165.66 30.4062 167.559 28.8125C169.457 27.207 171.883 26.4043 174.836 26.4043C177.215 26.4043 179.184 26.6328 180.742 27.0898C182.301 27.5352 183.637 28.25 184.75 29.2344V21.7812C184.75 20.7266 184.604 19.8477 184.311 19.1445C184.029 18.4297 183.602 17.8848 183.027 17.5098C182.453 17.123 181.809 16.8535 181.094 16.7012C180.379 16.5488 179.523 16.4727 178.527 16.4727C177.73 16.4727 177.01 16.6426 176.365 16.9824C176.729 17.7441 176.91 18.5469 176.91 19.3906C176.91 20.9492 176.359 22.2793 175.258 23.3809C174.168 24.4707 172.844 25.0156 171.285 25.0156C169.727 25.0156 168.396 24.4707 167.295 23.3809C166.205 22.2793 165.66 20.9492 165.66 19.3906C165.66 18.5938 165.812 17.8438 166.117 17.1406C166.434 16.4375 166.867 15.8223 167.418 15.2949C167.887 14.8027 168.373 14.3633 168.877 13.9766C169.381 13.5781 170.014 13.1855 170.775 12.7988C171.549 12.4004 172.387 12.0723 173.289 11.8145C174.191 11.5566 175.27 11.3516 176.523 11.1992C177.789 11.0352 179.172 10.9531 180.672 10.9531C182.617 10.9531 184.445 11.2402 186.156 11.8145C187.867 12.3887 189.344 13.1855 190.586 14.2051C191.828 15.2246 192.807 16.4785 193.521 17.9668C194.236 19.4551 194.594 21.0723 194.594 22.8184ZM184.75 36.1953V33.7695C184.023 33.0781 183.203 32.498 182.289 32.0293C181.387 31.5488 180.549 31.3086 179.775 31.3086C178.111 31.3086 176.939 31.5898 176.26 32.1523C175.58 32.7031 175.24 33.5996 175.24 34.8418C175.24 36.3301 175.533 37.4258 176.119 38.1289C176.705 38.832 177.795 39.1836 179.389 39.1836C180.291 39.1836 181.229 38.8965 182.201 38.3223C183.186 37.7363 184.035 37.0273 184.75 36.1953ZM201.273 11.6562H212.189L214.404 15.9277C216.479 12.6113 219.414 10.9531 223.211 10.9531C225.754 10.9531 227.77 11.7383 229.258 13.3086C230.758 14.8672 231.508 16.8945 231.508 19.3906C231.508 20.9492 230.957 22.2793 229.855 23.3809C228.766 24.4707 227.441 25.0156 225.883 25.0156C224.324 25.0156 222.994 24.4707 221.893 23.3809C220.803 22.2793 220.258 20.9492 220.258 19.3906C220.258 18.7578 220.357 18.1484 220.557 17.5625C220.24 17.375 219.906 17.2812 219.555 17.2812C218.77 17.2812 217.955 17.7969 217.111 18.8281C216.279 19.8477 215.477 21.377 214.703 23.416L214.633 38.375H222.367V44H201.273V38.375H204.789V17.2812H201.273V11.6562ZM263.148 22.8184V38.375H266.664V44H255.713L254.148 40.3438C252.953 42.0547 251.564 43.2266 249.982 43.8594C248.412 44.4922 246.215 44.8086 243.391 44.8086C241.926 44.8086 240.561 44.5508 239.295 44.0352C238.041 43.5312 236.969 42.8398 236.078 41.9609C235.199 41.082 234.508 40.0273 234.004 38.7969C233.512 37.5664 233.266 36.248 233.266 34.8418C233.266 32.416 234.215 30.4062 236.113 28.8125C238.012 27.207 240.438 26.4043 243.391 26.4043C245.77 26.4043 247.738 26.6328 249.297 27.0898C250.855 27.5352 252.191 28.25 253.305 29.2344V21.7812C253.305 20.7266 253.158 19.8477 252.865 19.1445C252.584 18.4297 252.156 17.8848 251.582 17.5098C251.008 17.123 250.363 16.8535 249.648 16.7012C248.934 16.5488 248.078 16.4727 247.082 16.4727C246.285 16.4727 245.564 16.6426 244.92 16.9824C245.283 17.7441 245.465 18.5469 245.465 19.3906C245.465 20.9492 244.914 22.2793 243.812 23.3809C242.723 24.4707 241.398 25.0156 239.84 25.0156C238.281 25.0156 236.951 24.4707 235.85 23.3809C234.76 22.2793 234.215 20.9492 234.215 19.3906C234.215 18.5938 234.367 17.8438 234.672 17.1406C234.988 16.4375 235.422 15.8223 235.973 15.2949C236.441 14.8027 236.928 14.3633 237.432 13.9766C237.936 13.5781 238.568 13.1855 239.33 12.7988C240.104 12.4004 240.941 12.0723 241.844 11.8145C242.746 11.5566 243.824 11.3516 245.078 11.1992C246.344 11.0352 247.727 10.9531 249.227 10.9531C251.172 10.9531 253 11.2402 254.711 11.8145C256.422 12.3887 257.898 13.1855 259.141 14.2051C260.383 15.2246 261.361 16.4785 262.076 17.9668C262.791 19.4551 263.148 21.0723 263.148 22.8184ZM253.305 36.1953V33.7695C252.578 33.0781 251.758 32.498 250.844 32.0293C249.941 31.5488 249.104 31.3086 248.33 31.3086C246.666 31.3086 245.494 31.5898 244.814 32.1523C244.135 32.7031 243.795 33.5996 243.795 34.8418C243.795 36.3301 244.088 37.4258 244.674 38.1289C245.26 38.832 246.35 39.1836 247.943 39.1836C248.846 39.1836 249.783 38.8965 250.756 38.3223C251.74 37.7363 252.59 37.0273 253.305 36.1953Z" fill="#D67D2F"/>
</svg>
